# xmcd
#
# Track frame offsets: 
#        150
#        24115
#        40985
#        52105
#        74557
#        84687
#        98942
#        114877
#        134732
#        158967
#        173790
#        194867
#
# Disc length: 2806 seconds
#
# Revision: 0
# Processed by: cddbd v1.5PL3 Copyright (c) Steve Scherf et al.
# Submitted via: ExactAudioCopy v0.95a3
#
DISCID=ae0af40c
DTITLE=Dejan's Olympia Brass Band of New Orleans $ Friends - A Dixiela
DTITLE=nd Christmas
DYEAR=1998
DGENRE=Big Band
TTITLE0=The Little Drummer Boy
TTITLE1=Winter Wonderland
TTITLE2=Away in a Manger
TTITLE3=Deck the Halls
TTITLE4=Jingle Bells
TTITLE5=We Three Kings
TTITLE6=Rudolph the Red-Nosed Reindeer
TTITLE7=Silent Night
TTITLE8='Twas the Night Before Christmas
TTITLE9=Please Come Home for Christmas
TTITLE10=The Christmas Song
TTITLE11=Amen
EXTD=
EXTT0=
EXTT1=
EXTT2=
EXTT3=
EXTT4=
EXTT5=
EXTT6=
EXTT7=
EXTT8=
EXTT9=
EXTT10=
EXTT11=
PLAYORDER=
